<mxfile host="app.diagrams.net" modified="2023-12-16T20:07:42.102Z" agent="Mozilla/5.0 (Windows NT 10.0; Win64; x64) AppleWebKit/537.36 (KHTML, like Gecko) Chrome/120.0.0.0 Safari/537.36" etag="htF20LdzwI6nef3Inen1" version="22.1.11" type="device">
  <diagram id="C5RBs43oDa-KdzZeNtuy" name="Page-1">
    <mxGraphModel dx="1816" dy="1721" grid="1" gridSize="10" guides="1" tooltips="1" connect="1" arrows="1" fold="1" page="1" pageScale="1" pageWidth="827" pageHeight="1169" math="0" shadow="0">
      <root>
        <mxCell id="WIyWlLk6GJQsqaUBKTNV-0" />
        <mxCell id="WIyWlLk6GJQsqaUBKTNV-1" parent="WIyWlLk6GJQsqaUBKTNV-0" />
        <mxCell id="WIyWlLk6GJQsqaUBKTNV-2" value="" style="rounded=0;html=1;jettySize=auto;orthogonalLoop=1;fontSize=11;endArrow=block;endFill=0;endSize=8;strokeWidth=1;shadow=0;labelBackgroundColor=none;edgeStyle=orthogonalEdgeStyle;" parent="WIyWlLk6GJQsqaUBKTNV-1" edge="1">
          <mxGeometry relative="1" as="geometry">
            <mxPoint x="200" y="-949" as="sourcePoint" />
            <mxPoint x="200" y="-899" as="targetPoint" />
          </mxGeometry>
        </mxCell>
        <mxCell id="WIyWlLk6GJQsqaUBKTNV-9" value="Yes" style="edgeStyle=orthogonalEdgeStyle;rounded=0;html=1;jettySize=auto;orthogonalLoop=1;fontSize=11;endArrow=block;endFill=0;endSize=8;strokeWidth=1;shadow=0;labelBackgroundColor=none;entryX=0.5;entryY=1;entryDx=0;entryDy=0;exitX=1;exitY=0.5;exitDx=0;exitDy=0;" parent="WIyWlLk6GJQsqaUBKTNV-1" source="WIyWlLk6GJQsqaUBKTNV-10" edge="1">
          <mxGeometry x="0.0934" y="20" relative="1" as="geometry">
            <mxPoint as="offset" />
            <mxPoint x="299.5" y="-821.0000000000001" as="targetPoint" />
            <Array as="points">
              <mxPoint x="300" y="-760" />
              <mxPoint x="300" y="-821" />
            </Array>
            <mxPoint x="249.99999999999955" y="-768.9999999999999" as="sourcePoint" />
          </mxGeometry>
        </mxCell>
        <mxCell id="WIyWlLk6GJQsqaUBKTNV-10" value="If user_input &amp;lt; 0 or user_input&amp;gt;101" style="rhombus;whiteSpace=wrap;html=1;shadow=0;fontFamily=Helvetica;fontSize=12;align=center;strokeWidth=1;spacing=6;spacingTop=-4;" parent="WIyWlLk6GJQsqaUBKTNV-1" vertex="1">
          <mxGeometry x="131" y="-809" width="139" height="100" as="geometry" />
        </mxCell>
        <mxCell id="n5deE7AO3LqtDNC9AssI-0" value="Start" style="ellipse;whiteSpace=wrap;html=1;" parent="WIyWlLk6GJQsqaUBKTNV-1" vertex="1">
          <mxGeometry x="140" y="-1169" width="120" height="80" as="geometry" />
        </mxCell>
        <mxCell id="n5deE7AO3LqtDNC9AssI-1" value="Input num" style="shape=parallelogram;perimeter=parallelogramPerimeter;whiteSpace=wrap;html=1;fixedSize=1;" parent="WIyWlLk6GJQsqaUBKTNV-1" vertex="1">
          <mxGeometry x="140" y="-1009" width="120" height="60" as="geometry" />
        </mxCell>
        <mxCell id="n5deE7AO3LqtDNC9AssI-3" value="" style="rounded=0;html=1;jettySize=auto;orthogonalLoop=1;fontSize=11;endArrow=block;endFill=0;endSize=8;strokeWidth=1;shadow=0;labelBackgroundColor=none;edgeStyle=orthogonalEdgeStyle;entryX=0.5;entryY=0;entryDx=0;entryDy=0;" parent="WIyWlLk6GJQsqaUBKTNV-1" target="n5deE7AO3LqtDNC9AssI-1" edge="1">
          <mxGeometry relative="1" as="geometry">
            <mxPoint x="199.5" y="-1089" as="sourcePoint" />
            <mxPoint x="199.5" y="-1039" as="targetPoint" />
          </mxGeometry>
        </mxCell>
        <mxCell id="n5deE7AO3LqtDNC9AssI-6" value="" style="rounded=0;html=1;jettySize=auto;orthogonalLoop=1;fontSize=11;endArrow=block;endFill=0;endSize=8;strokeWidth=1;shadow=0;labelBackgroundColor=none;edgeStyle=orthogonalEdgeStyle;" parent="WIyWlLk6GJQsqaUBKTNV-1" edge="1">
          <mxGeometry relative="1" as="geometry">
            <mxPoint x="199.5" y="-859" as="sourcePoint" />
            <mxPoint x="199.5" y="-809" as="targetPoint" />
          </mxGeometry>
        </mxCell>
        <mxCell id="n5deE7AO3LqtDNC9AssI-8" value="Print result" style="shape=parallelogram;perimeter=parallelogramPerimeter;whiteSpace=wrap;html=1;fixedSize=1;" parent="WIyWlLk6GJQsqaUBKTNV-1" vertex="1">
          <mxGeometry x="340" y="-869" width="120" height="60" as="geometry" />
        </mxCell>
        <mxCell id="n5deE7AO3LqtDNC9AssI-13" value="user_input = num&lt;br&gt;" style="rounded=0;whiteSpace=wrap;html=1;" parent="WIyWlLk6GJQsqaUBKTNV-1" vertex="1">
          <mxGeometry x="141" y="-899" width="120" height="60" as="geometry" />
        </mxCell>
        <mxCell id="n5deE7AO3LqtDNC9AssI-32" value="" style="edgeStyle=orthogonalEdgeStyle;rounded=0;orthogonalLoop=1;jettySize=auto;html=1;" parent="WIyWlLk6GJQsqaUBKTNV-1" source="n5deE7AO3LqtDNC9AssI-16" target="n5deE7AO3LqtDNC9AssI-29" edge="1">
          <mxGeometry relative="1" as="geometry" />
        </mxCell>
        <mxCell id="n5deE7AO3LqtDNC9AssI-16" value="if user_input &amp;lt; 6" style="rhombus;whiteSpace=wrap;html=1;shadow=0;fontFamily=Helvetica;fontSize=12;align=center;strokeWidth=1;spacing=6;spacingTop=-4;" parent="WIyWlLk6GJQsqaUBKTNV-1" vertex="1">
          <mxGeometry x="140" y="-359" width="120" height="89" as="geometry" />
        </mxCell>
        <mxCell id="n5deE7AO3LqtDNC9AssI-17" value="Yes" style="edgeStyle=orthogonalEdgeStyle;rounded=0;html=1;jettySize=auto;orthogonalLoop=1;fontSize=11;endArrow=block;endFill=0;endSize=8;strokeWidth=1;shadow=0;labelBackgroundColor=none;exitX=1;exitY=0.5;exitDx=0;exitDy=0;" parent="WIyWlLk6GJQsqaUBKTNV-1" edge="1" source="n5deE7AO3LqtDNC9AssI-16">
          <mxGeometry x="0.0247" y="23" relative="1" as="geometry">
            <mxPoint as="offset" />
            <mxPoint x="250" y="-319" as="sourcePoint" />
            <mxPoint x="383" y="-560" as="targetPoint" />
          </mxGeometry>
        </mxCell>
        <mxCell id="n5deE7AO3LqtDNC9AssI-22" value="Yes" style="edgeStyle=orthogonalEdgeStyle;rounded=0;html=1;jettySize=auto;orthogonalLoop=1;fontSize=11;endArrow=block;endFill=0;endSize=8;strokeWidth=1;shadow=0;labelBackgroundColor=none;exitX=1;exitY=0.5;exitDx=0;exitDy=0;entryX=-0.016;entryY=0.329;entryDx=0;entryDy=0;entryPerimeter=0;" parent="WIyWlLk6GJQsqaUBKTNV-1" edge="1" target="B7nY0ym915UMQuJ9VNVm-0">
          <mxGeometry x="0.0074" y="10" relative="1" as="geometry">
            <mxPoint as="offset" />
            <mxPoint x="251" y="-149" as="sourcePoint" />
            <mxPoint x="340" y="-149" as="targetPoint" />
            <Array as="points">
              <mxPoint x="290" y="-149" />
              <mxPoint x="290" y="-149" />
            </Array>
          </mxGeometry>
        </mxCell>
        <mxCell id="n5deE7AO3LqtDNC9AssI-23" value="No" style="rounded=0;html=1;jettySize=auto;orthogonalLoop=1;fontSize=11;endArrow=block;endFill=0;endSize=8;strokeWidth=1;shadow=0;labelBackgroundColor=none;edgeStyle=orthogonalEdgeStyle;" parent="WIyWlLk6GJQsqaUBKTNV-1" edge="1">
          <mxGeometry x="0.3333" y="20" relative="1" as="geometry">
            <mxPoint as="offset" />
            <mxPoint x="197.16" y="570" as="sourcePoint" />
            <mxPoint x="197.16" y="660" as="targetPoint" />
          </mxGeometry>
        </mxCell>
        <mxCell id="n5deE7AO3LqtDNC9AssI-24" value="No" style="rounded=0;html=1;jettySize=auto;orthogonalLoop=1;fontSize=11;endArrow=block;endFill=0;endSize=8;strokeWidth=1;shadow=0;labelBackgroundColor=none;edgeStyle=orthogonalEdgeStyle;" parent="WIyWlLk6GJQsqaUBKTNV-1" edge="1">
          <mxGeometry x="0.3333" y="20" relative="1" as="geometry">
            <mxPoint as="offset" />
            <mxPoint x="198.66" y="390" as="sourcePoint" />
            <mxPoint x="198.66" y="480" as="targetPoint" />
          </mxGeometry>
        </mxCell>
        <mxCell id="n5deE7AO3LqtDNC9AssI-25" value="No" style="rounded=0;html=1;jettySize=auto;orthogonalLoop=1;fontSize=11;endArrow=block;endFill=0;endSize=8;strokeWidth=1;shadow=0;labelBackgroundColor=none;edgeStyle=orthogonalEdgeStyle;" parent="WIyWlLk6GJQsqaUBKTNV-1" edge="1">
          <mxGeometry x="0.3333" y="20" relative="1" as="geometry">
            <mxPoint as="offset" />
            <mxPoint x="198.41" y="230" as="sourcePoint" />
            <mxPoint x="198.41" y="320" as="targetPoint" />
          </mxGeometry>
        </mxCell>
        <mxCell id="n5deE7AO3LqtDNC9AssI-26" value="No" style="rounded=0;html=1;jettySize=auto;orthogonalLoop=1;fontSize=11;endArrow=block;endFill=0;endSize=8;strokeWidth=1;shadow=0;labelBackgroundColor=none;edgeStyle=orthogonalEdgeStyle;" parent="WIyWlLk6GJQsqaUBKTNV-1" edge="1">
          <mxGeometry x="0.3333" y="20" relative="1" as="geometry">
            <mxPoint as="offset" />
            <mxPoint x="198.41" y="61" as="sourcePoint" />
            <mxPoint x="198.41" y="151" as="targetPoint" />
          </mxGeometry>
        </mxCell>
        <mxCell id="n5deE7AO3LqtDNC9AssI-27" value="No" style="rounded=0;html=1;jettySize=auto;orthogonalLoop=1;fontSize=11;endArrow=block;endFill=0;endSize=8;strokeWidth=1;shadow=0;labelBackgroundColor=none;edgeStyle=orthogonalEdgeStyle;entryX=0.5;entryY=0;entryDx=0;entryDy=0;" parent="WIyWlLk6GJQsqaUBKTNV-1" edge="1" target="n5deE7AO3LqtDNC9AssI-33">
          <mxGeometry x="0.3333" y="20" relative="1" as="geometry">
            <mxPoint as="offset" />
            <mxPoint x="199.41" y="-109" as="sourcePoint" />
            <mxPoint x="199.41" y="-19" as="targetPoint" />
          </mxGeometry>
        </mxCell>
        <mxCell id="n5deE7AO3LqtDNC9AssI-29" value="if user_input &amp;lt; 13" style="rhombus;whiteSpace=wrap;html=1;shadow=0;fontFamily=Helvetica;fontSize=12;align=center;strokeWidth=1;spacing=6;spacingTop=-4;" parent="WIyWlLk6GJQsqaUBKTNV-1" vertex="1">
          <mxGeometry x="140" y="-190" width="120" height="81" as="geometry" />
        </mxCell>
        <mxCell id="n5deE7AO3LqtDNC9AssI-30" value="result= -1" style="rounded=0;whiteSpace=wrap;html=1;" parent="WIyWlLk6GJQsqaUBKTNV-1" vertex="1">
          <mxGeometry x="270" y="-839" width="59" height="18" as="geometry" />
        </mxCell>
        <mxCell id="n5deE7AO3LqtDNC9AssI-33" value="if user_input &amp;lt; 20" style="rhombus;whiteSpace=wrap;html=1;shadow=0;fontFamily=Helvetica;fontSize=12;align=center;strokeWidth=1;spacing=6;spacingTop=-4;" parent="WIyWlLk6GJQsqaUBKTNV-1" vertex="1">
          <mxGeometry x="144" y="-30" width="111" height="91" as="geometry" />
        </mxCell>
        <mxCell id="n5deE7AO3LqtDNC9AssI-34" value="if user_ input &amp;lt; 51" style="rhombus;whiteSpace=wrap;html=1;shadow=0;fontFamily=Helvetica;fontSize=12;align=center;strokeWidth=1;spacing=6;spacingTop=-4;" parent="WIyWlLk6GJQsqaUBKTNV-1" vertex="1">
          <mxGeometry x="143.5" y="150" width="111" height="90" as="geometry" />
        </mxCell>
        <mxCell id="n5deE7AO3LqtDNC9AssI-35" value="if user_input&amp;nbsp; &amp;lt; 61" style="rhombus;whiteSpace=wrap;html=1;shadow=0;fontFamily=Helvetica;fontSize=12;align=center;strokeWidth=1;spacing=6;spacingTop=-4;" parent="WIyWlLk6GJQsqaUBKTNV-1" vertex="1">
          <mxGeometry x="143.5" y="320" width="111" height="90" as="geometry" />
        </mxCell>
        <mxCell id="n5deE7AO3LqtDNC9AssI-36" value="if user_input &amp;lt; 101" style="rhombus;whiteSpace=wrap;html=1;shadow=0;fontFamily=Helvetica;fontSize=12;align=center;strokeWidth=1;spacing=6;spacingTop=-4;" parent="WIyWlLk6GJQsqaUBKTNV-1" vertex="1">
          <mxGeometry x="140" y="480" width="115" height="90" as="geometry" />
        </mxCell>
        <mxCell id="n5deE7AO3LqtDNC9AssI-37" value="Print &quot;invalid Input&quot;" style="shape=parallelogram;perimeter=parallelogramPerimeter;whiteSpace=wrap;html=1;fixedSize=1;" parent="WIyWlLk6GJQsqaUBKTNV-1" vertex="1">
          <mxGeometry x="141" y="660" width="149" height="60" as="geometry" />
        </mxCell>
        <mxCell id="IEOO41FtTQJLJNov-m5K-0" value="" style="rounded=0;html=1;jettySize=auto;orthogonalLoop=1;fontSize=11;endArrow=block;endFill=0;endSize=8;strokeWidth=1;shadow=0;labelBackgroundColor=none;edgeStyle=orthogonalEdgeStyle;exitX=0;exitY=0.5;exitDx=0;exitDy=0;" parent="WIyWlLk6GJQsqaUBKTNV-1" source="n5deE7AO3LqtDNC9AssI-37" target="n5deE7AO3LqtDNC9AssI-1" edge="1">
          <mxGeometry relative="1" as="geometry">
            <mxPoint x="90" y="600" as="sourcePoint" />
            <mxPoint y="540" as="targetPoint" />
            <Array as="points">
              <mxPoint x="90" y="690" />
              <mxPoint x="90" y="440" />
              <mxPoint y="440" />
              <mxPoint y="-979" />
            </Array>
          </mxGeometry>
        </mxCell>
        <mxCell id="IEOO41FtTQJLJNov-m5K-1" value="Yes" style="edgeStyle=orthogonalEdgeStyle;rounded=0;html=1;jettySize=auto;orthogonalLoop=1;fontSize=11;endArrow=block;endFill=0;endSize=8;strokeWidth=1;shadow=0;labelBackgroundColor=none;exitX=1;exitY=0.5;exitDx=0;exitDy=0;" parent="WIyWlLk6GJQsqaUBKTNV-1" edge="1">
          <mxGeometry y="10" relative="1" as="geometry">
            <mxPoint as="offset" />
            <mxPoint x="249" y="529.38" as="sourcePoint" />
            <mxPoint x="338" y="529.38" as="targetPoint" />
          </mxGeometry>
        </mxCell>
        <mxCell id="IEOO41FtTQJLJNov-m5K-2" value="Yes" style="edgeStyle=orthogonalEdgeStyle;rounded=0;html=1;jettySize=auto;orthogonalLoop=1;fontSize=11;endArrow=block;endFill=0;endSize=8;strokeWidth=1;shadow=0;labelBackgroundColor=none;exitX=1;exitY=0.5;exitDx=0;exitDy=0;" parent="WIyWlLk6GJQsqaUBKTNV-1" edge="1">
          <mxGeometry y="10" relative="1" as="geometry">
            <mxPoint as="offset" />
            <mxPoint x="249" y="359.37" as="sourcePoint" />
            <mxPoint x="338" y="359.37" as="targetPoint" />
          </mxGeometry>
        </mxCell>
        <mxCell id="IEOO41FtTQJLJNov-m5K-3" value="Yes" style="edgeStyle=orthogonalEdgeStyle;rounded=0;html=1;jettySize=auto;orthogonalLoop=1;fontSize=11;endArrow=block;endFill=0;endSize=8;strokeWidth=1;shadow=0;labelBackgroundColor=none;exitX=1;exitY=0.5;exitDx=0;exitDy=0;" parent="WIyWlLk6GJQsqaUBKTNV-1" edge="1">
          <mxGeometry y="10" relative="1" as="geometry">
            <mxPoint as="offset" />
            <mxPoint x="255" y="194.66" as="sourcePoint" />
            <mxPoint x="344" y="194.66" as="targetPoint" />
          </mxGeometry>
        </mxCell>
        <mxCell id="IEOO41FtTQJLJNov-m5K-4" value="Yes" style="edgeStyle=orthogonalEdgeStyle;rounded=0;html=1;jettySize=auto;orthogonalLoop=1;fontSize=11;endArrow=block;endFill=0;endSize=8;strokeWidth=1;shadow=0;labelBackgroundColor=none;exitX=1;exitY=0.5;exitDx=0;exitDy=0;" parent="WIyWlLk6GJQsqaUBKTNV-1" edge="1">
          <mxGeometry y="10" relative="1" as="geometry">
            <mxPoint as="offset" />
            <mxPoint x="261" y="20.379999999999995" as="sourcePoint" />
            <mxPoint x="350" y="20.379999999999995" as="targetPoint" />
            <Array as="points">
              <mxPoint x="250" y="20" />
              <mxPoint x="250" y="20" />
            </Array>
          </mxGeometry>
        </mxCell>
        <mxCell id="IEOO41FtTQJLJNov-m5K-5" value="result = 2" style="rounded=0;whiteSpace=wrap;html=1;" parent="WIyWlLk6GJQsqaUBKTNV-1" vertex="1">
          <mxGeometry x="350" y="-9" width="120" height="60" as="geometry" />
        </mxCell>
        <mxCell id="IEOO41FtTQJLJNov-m5K-6" value="result= 3" style="rounded=0;whiteSpace=wrap;html=1;" parent="WIyWlLk6GJQsqaUBKTNV-1" vertex="1">
          <mxGeometry x="344" y="165" width="120" height="60" as="geometry" />
        </mxCell>
        <mxCell id="IEOO41FtTQJLJNov-m5K-7" value="result = 4" style="rounded=0;whiteSpace=wrap;html=1;" parent="WIyWlLk6GJQsqaUBKTNV-1" vertex="1">
          <mxGeometry x="340" y="330" width="120" height="60" as="geometry" />
        </mxCell>
        <mxCell id="IEOO41FtTQJLJNov-m5K-8" value="result = 5" style="rounded=0;whiteSpace=wrap;html=1;" parent="WIyWlLk6GJQsqaUBKTNV-1" vertex="1">
          <mxGeometry x="340" y="500" width="120" height="60" as="geometry" />
        </mxCell>
        <mxCell id="IEOO41FtTQJLJNov-m5K-12" value="" style="rounded=0;html=1;jettySize=auto;orthogonalLoop=1;fontSize=11;endArrow=block;endFill=0;endSize=8;strokeWidth=1;shadow=0;labelBackgroundColor=none;edgeStyle=orthogonalEdgeStyle;exitX=1;exitY=0.5;exitDx=0;exitDy=0;" parent="WIyWlLk6GJQsqaUBKTNV-1" edge="1">
          <mxGeometry relative="1" as="geometry">
            <mxPoint x="460" y="370" as="sourcePoint" />
            <mxPoint x="560" y="200" as="targetPoint" />
            <Array as="points">
              <mxPoint x="590" y="370" />
              <mxPoint x="590" y="310" />
              <mxPoint x="560" y="310" />
            </Array>
          </mxGeometry>
        </mxCell>
        <mxCell id="IEOO41FtTQJLJNov-m5K-13" value="" style="rounded=0;html=1;jettySize=auto;orthogonalLoop=1;fontSize=11;endArrow=block;endFill=0;endSize=8;strokeWidth=1;shadow=0;labelBackgroundColor=none;edgeStyle=orthogonalEdgeStyle;exitX=1;exitY=0.5;exitDx=0;exitDy=0;" parent="WIyWlLk6GJQsqaUBKTNV-1" edge="1">
          <mxGeometry relative="1" as="geometry">
            <mxPoint x="460" y="530" as="sourcePoint" />
            <mxPoint x="560" y="370" as="targetPoint" />
            <Array as="points">
              <mxPoint x="590" y="530" />
              <mxPoint x="590" y="470" />
              <mxPoint x="560" y="470" />
            </Array>
          </mxGeometry>
        </mxCell>
        <mxCell id="IEOO41FtTQJLJNov-m5K-14" value="" style="rounded=0;html=1;jettySize=auto;orthogonalLoop=1;fontSize=11;endArrow=block;endFill=0;endSize=8;strokeWidth=1;shadow=0;labelBackgroundColor=none;edgeStyle=orthogonalEdgeStyle;exitX=0.967;exitY=0.583;exitDx=0;exitDy=0;exitPerimeter=0;" parent="WIyWlLk6GJQsqaUBKTNV-1" edge="1">
          <mxGeometry relative="1" as="geometry">
            <mxPoint x="463.99999999999994" y="199.98000000000002" as="sourcePoint" />
            <mxPoint x="563.96" y="20" as="targetPoint" />
            <Array as="points">
              <mxPoint x="593.96" y="200" />
              <mxPoint x="593.96" y="140" />
              <mxPoint x="563.96" y="140" />
            </Array>
          </mxGeometry>
        </mxCell>
        <mxCell id="IEOO41FtTQJLJNov-m5K-15" value="" style="rounded=0;html=1;jettySize=auto;orthogonalLoop=1;fontSize=11;endArrow=block;endFill=0;endSize=8;strokeWidth=1;shadow=0;labelBackgroundColor=none;edgeStyle=orthogonalEdgeStyle;" parent="WIyWlLk6GJQsqaUBKTNV-1" edge="1">
          <mxGeometry relative="1" as="geometry">
            <mxPoint x="470" y="20" as="sourcePoint" />
            <mxPoint x="560" y="-140" as="targetPoint" />
            <Array as="points">
              <mxPoint x="590" y="20" />
              <mxPoint x="590" y="-40" />
              <mxPoint x="560" y="-40" />
            </Array>
          </mxGeometry>
        </mxCell>
        <mxCell id="IEOO41FtTQJLJNov-m5K-16" value="" style="rounded=0;html=1;jettySize=auto;orthogonalLoop=1;fontSize=11;endArrow=block;endFill=0;endSize=8;strokeWidth=1;shadow=0;labelBackgroundColor=none;edgeStyle=orthogonalEdgeStyle;exitX=1;exitY=0.5;exitDx=0;exitDy=0;entryX=0.75;entryY=1;entryDx=0;entryDy=0;" parent="WIyWlLk6GJQsqaUBKTNV-1" target="n5deE7AO3LqtDNC9AssI-8" edge="1">
          <mxGeometry relative="1" as="geometry">
            <mxPoint x="460" y="-140" as="sourcePoint" />
            <mxPoint x="560" y="-260" as="targetPoint" />
            <Array as="points">
              <mxPoint x="570" y="-140" />
              <mxPoint x="570" y="-718" />
              <mxPoint x="430" y="-718" />
            </Array>
          </mxGeometry>
        </mxCell>
        <mxCell id="IEOO41FtTQJLJNov-m5K-17" value="" style="rounded=0;html=1;jettySize=auto;orthogonalLoop=1;fontSize=11;endArrow=block;endFill=0;endSize=8;strokeWidth=1;shadow=0;labelBackgroundColor=none;edgeStyle=orthogonalEdgeStyle;" parent="WIyWlLk6GJQsqaUBKTNV-1" source="n5deE7AO3LqtDNC9AssI-8" target="IEOO41FtTQJLJNov-m5K-18" edge="1">
          <mxGeometry relative="1" as="geometry">
            <mxPoint x="470" y="-740" as="sourcePoint" />
            <mxPoint x="693.0769230769231" y="1070" as="targetPoint" />
            <Array as="points">
              <mxPoint x="490" y="-839" />
              <mxPoint x="490" y="-769" />
              <mxPoint x="693" y="-769" />
            </Array>
          </mxGeometry>
        </mxCell>
        <mxCell id="IEOO41FtTQJLJNov-m5K-18" value="End" style="ellipse;whiteSpace=wrap;html=1;" parent="WIyWlLk6GJQsqaUBKTNV-1" vertex="1">
          <mxGeometry x="633.0769230769229" y="1030" width="120" height="80" as="geometry" />
        </mxCell>
        <mxCell id="B7nY0ym915UMQuJ9VNVm-0" value="result = 1" style="rounded=0;whiteSpace=wrap;html=1;" parent="WIyWlLk6GJQsqaUBKTNV-1" vertex="1">
          <mxGeometry x="350" y="-169" width="120" height="60" as="geometry" />
        </mxCell>
        <mxCell id="B7nY0ym915UMQuJ9VNVm-1" value="" style="endArrow=classic;html=1;rounded=0;entryX=0.052;entryY=0.627;entryDx=0;entryDy=0;exitX=1;exitY=0.5;exitDx=0;exitDy=0;entryPerimeter=0;" parent="WIyWlLk6GJQsqaUBKTNV-1" source="n5deE7AO3LqtDNC9AssI-30" target="n5deE7AO3LqtDNC9AssI-8" edge="1">
          <mxGeometry width="50" height="50" relative="1" as="geometry">
            <mxPoint x="330" y="-820" as="sourcePoint" />
            <mxPoint x="340" y="-830" as="targetPoint" />
          </mxGeometry>
        </mxCell>
        <mxCell id="TEKfTuiQla_L9S8kb2rq-3" value="" style="endArrow=classic;html=1;rounded=0;exitX=0.5;exitY=1;exitDx=0;exitDy=0;" edge="1" parent="WIyWlLk6GJQsqaUBKTNV-1" source="WIyWlLk6GJQsqaUBKTNV-10">
          <mxGeometry width="50" height="50" relative="1" as="geometry">
            <mxPoint x="201.00000000000023" y="-520" as="sourcePoint" />
            <mxPoint x="200" y="-360" as="targetPoint" />
          </mxGeometry>
        </mxCell>
        <mxCell id="TEKfTuiQla_L9S8kb2rq-5" value="&lt;span style=&quot;color: rgb(0, 0, 0); font-family: Helvetica; font-size: 11px; font-style: normal; font-variant-ligatures: normal; font-variant-caps: normal; font-weight: 400; letter-spacing: normal; orphans: 2; text-align: center; text-indent: 0px; text-transform: none; widows: 2; word-spacing: 0px; -webkit-text-stroke-width: 0px; background-color: rgb(251, 251, 251); text-decoration-thickness: initial; text-decoration-style: initial; text-decoration-color: initial; float: none; display: inline !important;&quot;&gt;No&lt;/span&gt;" style="text;whiteSpace=wrap;html=1;" vertex="1" parent="WIyWlLk6GJQsqaUBKTNV-1">
          <mxGeometry x="204.5" y="-520" width="50" height="40" as="geometry" />
        </mxCell>
        <mxCell id="TEKfTuiQla_L9S8kb2rq-6" value="result= 0" style="rounded=0;whiteSpace=wrap;html=1;" vertex="1" parent="WIyWlLk6GJQsqaUBKTNV-1">
          <mxGeometry x="329" y="-620" width="120" height="60" as="geometry" />
        </mxCell>
        <mxCell id="TEKfTuiQla_L9S8kb2rq-7" value="" style="endArrow=classic;html=1;rounded=0;entryX=0.361;entryY=1.018;entryDx=0;entryDy=0;entryPerimeter=0;" edge="1" parent="WIyWlLk6GJQsqaUBKTNV-1" target="n5deE7AO3LqtDNC9AssI-8">
          <mxGeometry width="50" height="50" relative="1" as="geometry">
            <mxPoint x="385" y="-620" as="sourcePoint" />
            <mxPoint x="380" y="-810" as="targetPoint" />
          </mxGeometry>
        </mxCell>
      </root>
    </mxGraphModel>
  </diagram>
</mxfile>
